<?xml version="1.0" encoding="utf-8"?>
<!-- Generator: Adobe Illustrator 20.0.0, SVG Export Plug-In . SVG Version: 6.00 Build 0)  -->
<svg version="1.1" xmlns="http://www.w3.org/2000/svg" xmlns:xlink="http://www.w3.org/1999/xlink" x="0px" y="0px"
	 viewBox="0 0 1536 850.6" style="enable-background:new 0 0 1536 850.6;" xml:space="preserve">
<style type="text/css">
	.st0{display:none;}
	.st1{display:inline;}
	.st2{fill-rule:evenodd;clip-rule:evenodd;fill:#B52A2A;}
	.st3{fill:none;}
	.st4{fill:#FFFFFF;}
	.st5{font-family:'Aharoni-Bold';}
	.st6{font-size:604.2908px;}
	.st7{fill-rule:evenodd;clip-rule:evenodd;fill:#A0A0A0;}
	.st8{fill-rule:evenodd;clip-rule:evenodd;fill:#FFFFFF;}
	.st9{font-family:'MyriadPro-Regular';}
	.st10{font-size:36px;}
	.st11{letter-spacing:-2;}
	.st12{letter-spacing:1;}
	.st13{display:inline;fill:#F9ACAC;}
	.st14{display:inline;fill:#5B550B;}
	.st15{fill:#5B550B;}
</style>
<g id="Plan_de_travail_1_1_" class="st0">
	<g id="Rectangle_2" class="st1">
		<g>
			<rect x="-11" y="0" class="st2" width="1547" height="969.3"/>
		</g>
	</g>
	<g id="H" class="st1">
		<rect x="448.3" y="249" class="st3" width="2327.7" height="1310.1"/>
		<text transform="matrix(1 0 0 1 448.2617 691.9027)" class="st4 st5 st6">H</text>
	</g>
	<g id="T" class="st1">
		<text transform="matrix(1 0 0 1 830.1738 546.2777)" class="st4 st5 st6">T</text>
	</g>
	<g id="Rectangle_1" class="st1">
		<g>
			<rect x="919.6" y="577.7" class="st7" width="106.4" height="113.6"/>
		</g>
	</g>
	<g id="Rectangle_rertical_H" class="st1">
		<g>
			<rect x="489.4" y="143.8" class="st8" width="106.4" height="175.2"/>
		</g>
	</g>
	<g id="Rectangle_Horiz_T" class="st1">
		<g>
			<rect x="743.2" y="143.8" class="st8" width="175.2" height="87"/>
		</g>
	</g>
	<g id="À_PROPOS">
		<text transform="matrix(1 0 0 1 487.9712 781.433)" class="st1"><tspan x="0" y="0" class="st4 st9 st10">À P</tspan><tspan x="48.8" y="0" class="st4 st9 st10">R</tspan><tspan x="68.3" y="0" class="st4 st9 st10">OPOS</tspan></text>
	</g>
	<g id="COMPÉTENCES">
		<text transform="matrix(1 0 0 1 684.9712 782.433)" class="st1"><tspan x="0" y="0" class="st4 st9 st10">C</tspan><tspan x="20.1" y="0" class="st4 st9 st10">OMP</tspan><tspan x="93" y="0" class="st4 st9 st10">É</tspan><tspan x="111.3" y="0" class="st4 st9 st10">TENCES</tspan></text>
	</g>
	<g id="PORTFOLIO">
		<text transform="matrix(1 0 0 1 943.9717 781.433)" class="st1"><tspan x="0" y="0" class="st4 st9 st10">PO</tspan><tspan x="44" y="0" class="st4 st9 st10">R</tspan><tspan x="63.6" y="0" class="st4 st9 st10">TFOLIO</tspan></text>
	</g>
	<g id="CONTACT">
		<text transform="matrix(1 0 0 1 1200.9717 781.433)" class="st1"><tspan x="0" y="0" class="st4 st9 st10">C</tspan><tspan x="20.1" y="0" class="st4 st9 st10">ON</tspan><tspan x="68.6" y="0" class="st4 st9 st10 st11">T</tspan><tspan x="83.8" y="0" class="st4 st9 st10">A</tspan><tspan x="105.3" y="0" class="st4 st9 st10 st12">C</tspan><tspan x="127.2" y="0" class="st4 st9 st10">T</tspan></text>
	</g>
</g>
<g id="Calque_9">
	<path d="M0,0v850.6h1536V0H0z M777.3,691.6H670.2v-166H522.7v166H416.4v-548l106.4,1.3v299.3h147.4V289h107.2V691.6z M1127.5,230.8
		H953.8v316.4H846.6l0.1-316.4H670.3v-87h457.3V230.8z"/>
	<rect id="_x3C_Tranche_x3E_" x="-1" y="-0.4" class="st3" width="1540" height="846"/>
</g>
<g id="Calque_8" class="st0">
	<rect x="846.9" y="584" class="st13" width="107.5" height="107.5"/>
</g>
<g id="Calque_10" class="st0">
	<polygon class="st14" points="323.7,453 217.4,451.6 217.4,999.6 323.7,999.6 323.7,833.6 471.2,833.6 471.2,999.6 578.3,999.6 
		578.3,597 471.2,597 471.2,752.3 323.7,752.3 	"/>
	<polyline class="st14" points="647.6,855.3 754.8,855.3 754.8,538.8 928.5,538.8 928.5,451.9 471.3,451.9 471.3,538.8 647.8,538.8 
			"/>
	<polyline class="st15" points="804.8,538.8 979.5,538.8 979.5,451.9 521.3,451.9 	"/>
	<polyline class="st15" points="805.8,538.8 980.5,538.8 980.5,451.9 522.3,451.9 	"/>
	<polyline class="st15" points="806.8,538.8 981.5,538.8 981.5,451.9 523.3,451.9 	"/>
	<polyline class="st15" points="807.8,538.8 982.5,538.8 982.5,451.9 524.3,451.9 	"/>
	<polyline class="st15" points="808.8,538.8 953.5,538.8 953.5,451.9 525.3,451.9 	"/>
	<rect x="697.6" y="908.6" class="st15" width="106.4" height="91"/>
	<rect x="647.9" y="892" class="st13" width="107.5" height="107.5"/>
</g>
</svg>
